<svg id="Layer_1" enable-background="new 0 0 512 512" height="512" viewBox="0 0 512 512" width="512" xmlns="http://www.w3.org/2000/svg"><g><path d="m504 48v296h-496v-296c0-13.255 10.745-24 24-24h448c13.255 0 24 10.745 24 24z" fill="#edebfd"/><path d="m504 48v296h-48v-296c0-13.25-10.75-24-24-24h48c13.25 0 24 10.75 24 24z" fill="#d2d2fc"/><path d="m480 408h-448c-13.255 0-24-10.745-24-24v-40h496v40c0 13.255-10.745 24-24 24z" fill="#595965"/><path d="m40 56h432v256h-432z" fill="#c8effd"/><path d="m424 56h48v256h-48z" fill="#a0e1fd"/><path d="m344 456h-176l8-48h160z" fill="#595965"/><path d="m376 488h-240v-18c0-7.732 6.268-14 14-14h212c7.732 0 14 6.268 14 14z" fill="#595965"/><path d="m392 264h-48c-8.837 0-16-7.163-16-16 0-8.809 7.136-16 16-16h48c8.837 0 16 7.163 16 16 0 8.809-7.136 16-16 16z" fill="#f1cc76"/><path d="m408 248c0 8.853-7.16 16-16 16h-24c4.42 0 8.42-1.79 11.32-4.68 9.976-10.011 2.98-27.32-11.32-27.32h24c8.84 0 16 7.16 16 16z" fill="#ebb15d"/><path d="m256 144-16 32-24-8v88h-96v-88l-24 8-16-32 40-32h96z" fill="#e48c9b"/><path d="m256 144-16 32-24-8v88h-24v-88l16 8 16-32-40-32h32z" fill="#cc5b6f"/><g fill="#44454e"><path d="m504 344v40c0 13.25-10.75 24-24 24h-48c13.25 0 24-10.75 24-24v-40z"/><path d="m344 456h-40l-8-48h40z"/><path d="m376 470v18h-48v-18c0-7.73-6.27-14-14-14h48c7.73 0 14 6.27 14 14z"/><path d="m340 432h-168l4-24h160z"/></g><path d="m192 112v8c0 13.255-10.745 24-24 24-13.218 0-24-10.709-24-24v-8z" fill="#cc5b6f"/><path d="m480 16h-448c-17.645 0-32 14.355-32 32v336c0 17.645 14.355 32 32 32h134.556l-5.333 32h-11.223c-12.131 0-22 9.869-22 22v18c0 4.418 3.582 8 8 8h240c4.418 0 8-3.582 8-8v-18c0-12.131-9.869-22-22-22h-11.222l-5.333-32h134.555c17.645 0 32-14.355 32-32 0-17.211 0-324.937 0-336 0-17.645-14.355-32-32-32zm-464 32c0-8.822 7.178-16 16-16h448c8.822 0 16 7.178 16 16v288h-480zm352 422v10h-224v-10c0-3.309 2.691-6 6-6h212c3.309 0 6 2.691 6 6zm-33.443-22h-157.114l5.334-32h146.445zm161.443-64c0 8.822-7.178 16-16 16-18.986 0-413.941 0-448 0-8.822 0-16-7.178-16-16v-32h480z"/><path d="m472 48h-432c-4.418 0-8 3.582-8 8v256c0 4.418 3.582 8 8 8h432c4.418 0 8-3.582 8-8v-256c0-4.418-3.582-8-8-8zm-8 256h-416v-240h416z"/><path d="m304 112h128c4.418 0 8-3.582 8-8s-3.582-8-8-8h-128c-4.418 0-8 3.582-8 8s3.582 8 8 8z"/><path d="m304 152h128c4.418 0 8-3.582 8-8s-3.582-8-8-8h-128c-4.418 0-8 3.582-8 8s3.582 8 8 8z"/><path d="m304 192h128c4.418 0 8-3.582 8-8s-3.582-8-8-8h-128c-4.418 0-8 3.582-8 8s3.582 8 8 8z"/><path d="m248.609 379.06c3.323 7.974 15.391 5.694 15.391-3.06 0-7.164-8.695-10.625-13.66-5.66-2.223 2.223-2.996 5.674-1.731 8.72z"/><path d="m392 224h-48c-13.233 0-24 10.767-24 24s10.767 24 24 24h48c13.233 0 24-10.767 24-24s-10.767-24-24-24zm0 32h-48c-4.411 0-8-3.589-8-8s3.589-8 8-8h48c4.411 0 8 3.589 8 8s-3.589 8-8 8z"/><path d="m88.845 179.578c1.78 3.56 5.903 5.269 9.686 4.012l13.469-4.49v76.9c0 4.418 3.582 8 8 8h96c4.418 0 8-3.582 8-8v-76.9l13.47 4.49c3.777 1.257 7.904-.451 9.686-4.012l16-32c1.688-3.374.788-7.469-2.158-9.825l-40-32c-1.419-1.135-3.182-1.753-4.998-1.753h-96c-1.816 0-3.579.618-4.997 1.753l-40 32c-2.946 2.356-3.846 6.451-2.158 9.825zm95.155-59.578c0 8.822-7.178 16-16 16s-16-7.178-16-16zm-61.193 0h13.193c0 17.645 14.355 32 32 32s32-14.355 32-32h13.193l32.759 26.207-10.005 20.01-17.417-5.807c-5.189-1.727-10.53 2.144-10.53 7.59v80h-80v-80c0-5.44-5.336-9.32-10.53-7.59l-17.417 5.807-10.005-20.01z"/></g></svg>